# xmcd CD database file
#
# Track frame offsets:
#	182
#	9152
#	30677
#	49027
#	71100
#	87982
#	102627
#	121345
#	136262
#	154092
#	170325
#	194702
#	209150
#	224325
#	244797
#
# Disc length: 3553 seconds
#
# Revision: 2
# Processed by: cddbd v1.5.2PL0 Copyright (c) Steve Scherf et al.
# Submitted via: CDex 1.70beta2
#
DISCID=dd0ddf0f
DTITLE=Oh Happy Day - Christmas Gospel
DYEAR=1900
DGENRE=
TTITLE0=Amen
TTITLE1=Jingle Bells
TTITLE2=White Christmas
TTITLE3=The Christmas Song
TTITLE4=The Old Rugged Cross
TTITLE5=Joshua Fit The Battle Of Jericho
TTITLE6=Silent Night
TTITLE7=I Ask The Lord
TTITLE8=Oh Happy Day
TTITLE9=Go Tell It Over The Mountains
TTITLE10=His Eye Is On The Mountain
TTITLE11=Down By The River Side
TTITLE12=The Old Rugged Cross - LIVE
TTITLE13=Joshua Fit The Battle Of Jericho - LIVE
TTITLE14=A Closer Walk With Thee - LIVE
EXTD=
EXTT0=
EXTT1=
EXTT2=
EXTT3=
EXTT4=
EXTT5=
EXTT6=
EXTT7=
EXTT8=
EXTT9=
EXTT10=
EXTT11=
EXTT12=
EXTT13=
EXTT14=
PLAYORDER=
